<svg width="143" height="143" viewBox="0 0 143 143" fill="none" xmlns="http://www.w3.org/2000/svg">
<path d="M41.708 97.8525C34.7403 97.8528 29.2921 104.859 29.292 113.208C29.292 121.635 34.7387 128.643 41.708 128.644C48.6775 128.644 54.125 121.635 54.125 113.208C54.1249 104.859 48.6759 97.8525 41.708 97.8525ZM101.292 97.8525C94.3241 97.8525 88.8751 104.859 88.875 113.208C88.875 121.635 94.3225 128.644 101.292 128.644C108.261 128.643 113.708 121.635 113.708 113.208C113.708 104.859 108.26 97.8527 101.292 97.8525ZM71.5 35.25C61.4614 35.25 53.125 42.0662 53.125 50.6855C53.125 59.227 61.4632 66.042 71.5 66.042C81.5368 66.042 89.875 59.227 89.875 50.6855C89.875 42.0662 81.5386 35.25 71.5 35.25ZM71.5 42.208C74.4811 42.208 76.958 44.6859 76.958 47.667C76.9578 50.6479 74.481 53.125 71.5 53.125C68.5191 53.125 66.0422 50.6479 66.042 47.667C66.042 44.6859 68.5189 42.208 71.5 42.208ZM33.4697 37.6523L33.0781 37.5654C24.7207 35.7082 18.375 28.2005 18.375 19.2256C18.375 8.93563 26.8106 0.500025 37.1006 0.5C42.4454 0.5 47.3943 2.74787 50.6338 6.2959L50.917 6.60547L51.2715 6.38086C57.3195 2.54045 64.3357 0.500987 71.5 0.500977C78.6643 0.500977 85.6805 2.54044 91.7285 6.38086L92.083 6.60547L92.3662 6.2959C95.6057 2.74788 100.555 0.500015 105.899 0.5C116.189 0.5 124.625 8.93562 124.625 19.2256C124.625 28.2809 118.279 35.7854 109.848 37.5645L109.451 37.6484V38.5303C109.451 46.7616 106.786 54.3675 102.314 60.6436L101.979 61.1152L102.493 61.3789C108.634 64.5283 113.74 68.616 117.503 73.3984L117.747 73.709L118.106 73.542C120.265 72.5398 122.656 72 125.125 72C134.779 72 142.5 79.7206 142.5 89.375C142.5 99.0294 134.779 106.75 125.125 106.75H124.059L124.155 107.332C124.468 109.209 124.625 111.247 124.625 113.208C124.625 129.487 114.105 142.5 101.292 142.5C93.4922 142.5 86.5668 137.634 82.2617 130.12L82.0928 129.825L81.7568 129.873C78.4448 130.346 75.0524 130.583 71.5 130.583C67.9476 130.583 64.5552 130.346 61.2432 129.873L60.9072 129.825L60.7383 130.12C56.4332 137.634 49.5078 142.5 41.708 142.5C28.8953 142.5 18.375 129.487 18.375 113.208C18.375 111.247 18.5319 109.209 18.8447 107.332L18.9424 106.75H17.875C8.37151 106.75 0.741998 99.2688 0.505859 89.8262L0.5 89.375V89.373C0.490152 86.4792 1.20689 83.6292 2.58398 81.084C3.96113 78.5387 5.95497 76.3797 8.38281 74.8047C10.8106 73.2297 13.5949 72.2884 16.4805 72.0684C19.366 71.8483 22.2609 72.3563 24.8994 73.5449L25.2559 73.7051L25.4971 73.3984C29.2605 68.6157 34.3665 64.5276 40.4297 61.3779L40.9385 61.1133L40.6064 60.6445C36.2127 54.4461 33.4697 46.7601 33.4697 38.5303V37.6523Z" fill="#BF86AE" stroke="#BF86AE"/>
</svg>
