<svg width="159" height="114" viewBox="0 0 159 114" fill="none" xmlns="http://www.w3.org/2000/svg">
<path d="M107.469 79.1875C105.969 79.1875 104.53 79.7834 103.469 80.8442C102.408 81.9049 101.812 83.3436 101.812 84.8438C101.812 86.3439 102.408 87.7826 103.469 88.8433C104.53 89.9041 105.969 90.5 107.469 90.5H130.094C131.594 90.5 133.033 89.9041 134.093 88.8433C135.154 87.7826 135.75 86.3439 135.75 84.8438C135.75 83.3436 135.154 81.9049 134.093 80.8442C133.033 79.7834 131.594 79.1875 130.094 79.1875H107.469ZM0 22.625C0 16.6245 2.3837 10.8697 6.62671 6.62671C10.8697 2.3837 16.6245 0 22.625 0H135.75C141.751 0 147.505 2.3837 151.748 6.62671C155.991 10.8697 158.375 16.6245 158.375 22.625V90.5C158.375 96.5005 155.991 102.255 151.748 106.498C147.505 110.741 141.751 113.125 135.75 113.125H22.625C16.6245 113.125 10.8697 110.741 6.62671 106.498C2.3837 102.255 0 96.5005 0 90.5V22.625ZM147.062 22.625C147.062 19.6247 145.871 16.7474 143.749 14.6259C141.628 12.5044 138.75 11.3125 135.75 11.3125H22.625C19.6247 11.3125 16.7474 12.5044 14.6259 14.6259C12.5043 16.7474 11.3125 19.6247 11.3125 22.625V33.9375H147.062V22.625ZM11.3125 90.5C11.3125 93.5003 12.5043 96.3776 14.6259 98.4991C16.7474 100.621 19.6247 101.812 22.625 101.812H135.75C138.75 101.812 141.628 100.621 143.749 98.4991C145.871 96.3776 147.062 93.5003 147.062 90.5V45.25H11.3125V90.5Z" fill="#BF86AE"/>
</svg>
