<svg width="164" height="129" viewBox="0 0 164 129" fill="none" xmlns="http://www.w3.org/2000/svg">
<path d="M11.6875 58.4375H81.8125V70.125H11.6875V58.4375ZM0 29.2188H58.4375V40.9062H0V29.2188Z" fill="#BF86AE"/>
<path d="M163.152 61.9788L145.62 21.0726C145.17 20.0211 144.422 19.125 143.467 18.4955C142.512 17.8659 141.394 17.5306 140.25 17.5312H122.719V5.84375C122.719 4.29389 122.103 2.80751 121.007 1.7116C119.911 0.61568 118.425 0 116.875 0H23.375V11.6875H111.031V85.0616C108.368 86.6078 106.038 88.6659 104.175 91.1172C102.311 93.5684 100.951 96.3644 100.174 99.3437H63.4514C62.0291 93.8351 58.6465 89.0343 53.9377 85.8412C49.229 82.6481 43.5173 81.2819 37.8733 81.9988C32.2293 82.7157 27.0406 85.4664 23.2796 89.7353C19.5186 94.0042 17.4437 99.4982 17.4437 105.187C17.4437 110.877 19.5186 116.371 23.2796 120.64C27.0406 124.909 32.2293 127.659 37.8733 128.376C43.5173 129.093 49.229 127.727 53.9377 124.534C58.6465 121.341 62.0291 116.54 63.4514 111.031H100.174C101.445 116.047 104.352 120.495 108.435 123.672C112.519 126.85 117.545 128.575 122.719 128.575C127.893 128.575 132.919 126.85 137.002 123.672C141.085 120.495 143.993 116.047 145.264 111.031H157.781C159.331 111.031 160.817 110.416 161.913 109.32C163.009 108.224 163.625 106.737 163.625 105.187V64.2812C163.625 63.4896 163.464 62.7062 163.152 61.9788ZM40.9062 116.875C38.5947 116.875 36.335 116.19 34.413 114.905C32.491 113.621 30.993 111.796 30.1084 109.66C29.2238 107.524 28.9923 105.175 29.4433 102.907C29.8943 100.64 31.0074 98.5577 32.6419 96.9232C34.2764 95.2887 36.3589 94.1755 38.6261 93.7246C40.8933 93.2736 43.2432 93.5051 45.3788 94.3896C47.5144 95.2742 49.3398 96.7723 50.624 98.6943C51.9083 100.616 52.5937 102.876 52.5937 105.187C52.5906 108.286 51.3583 111.257 49.1671 113.448C46.976 115.64 44.005 116.872 40.9062 116.875ZM122.719 29.2187H136.393L148.922 58.4375H122.719V29.2187ZM122.719 116.875C120.407 116.875 118.147 116.19 116.225 114.905C114.303 113.621 112.805 111.796 111.921 109.66C111.036 107.524 110.805 105.175 111.256 102.907C111.707 100.64 112.82 98.5577 114.454 96.9232C116.089 95.2887 118.171 94.1755 120.439 93.7246C122.706 93.2736 125.056 93.5051 127.191 94.3896C129.327 95.2742 131.152 96.7723 132.437 98.6943C133.721 100.616 134.406 102.876 134.406 105.187C134.403 108.286 133.171 111.257 130.98 113.448C128.788 115.64 125.817 116.872 122.719 116.875ZM151.937 99.3437H145.264C143.977 94.3382 141.065 89.9013 136.985 86.7286C132.905 83.5559 127.887 81.8269 122.719 81.8125V70.125H151.937V99.3437Z" fill="#BF86AE"/>
<path d="M105.938 93.2706L87.3297 74.6627C84.4383 71.7722 82.8135 67.8515 82.8126 63.7631V16.1873" stroke="#BF86AE" stroke-width="12" stroke-linecap="round" stroke-linejoin="round"/>
</svg>
