<svg width="44" height="32" viewBox="0 0 44 32" fill="none" xmlns="http://www.w3.org/2000/svg">
<path fill-rule="evenodd" clip-rule="evenodd" d="M22.7448 19.7993C22.7282 19.8285 22.7099 19.8571 22.6897 19.885C22.5972 20.0127 22.5037 20.1405 22.409 20.2683C22.3601 20.3344 22.304 20.3919 22.2426 20.4405C22.213 20.5133 22.1734 20.5835 22.1238 20.6491C22.0283 20.775 21.9317 20.9009 21.8342 21.0266C21.7838 21.0915 21.7264 21.1477 21.664 21.1949C21.6327 21.267 21.5916 21.3362 21.5404 21.4006C21.4418 21.5246 21.3423 21.6483 21.2418 21.7716C21.1897 21.8355 21.1308 21.8904 21.0671 21.9361C21.034 22.0077 20.9911 22.0761 20.9382 22.1393C20.8364 22.261 20.7336 22.3823 20.63 22.503C20.5762 22.5656 20.5159 22.619 20.4509 22.6631C20.4159 22.7339 20.3712 22.8012 20.3166 22.863C20.2112 22.9824 20.105 23.1011 19.9979 23.2191C19.9423 23.2802 19.8804 23.332 19.814 23.3744C19.777 23.4442 19.7303 23.5103 19.6738 23.5707C19.5647 23.6873 19.4548 23.8031 19.344 23.9179C19.2865 23.9776 19.2228 24.0276 19.1551 24.0679C19.1158 24.1368 19.0669 24.2016 19.0084 24.2603C18.8955 24.3737 18.7816 24.486 18.667 24.5973C18.6073 24.6552 18.5418 24.7032 18.4725 24.7413C18.4308 24.809 18.3796 24.8723 18.3189 24.9292C18.2015 25.039 18.0833 25.1477 17.9643 25.2551C17.9024 25.3109 17.835 25.3565 17.7642 25.3921C17.7199 25.4584 17.6662 25.5198 17.6032 25.5744C17.4813 25.6801 17.3586 25.7843 17.235 25.887C17.1706 25.9405 17.101 25.9836 17.0283 26.0163C16.9811 26.081 16.9245 26.1405 16.8589 26.1926C16.732 26.2935 16.6041 26.3927 16.4755 26.4901C16.4085 26.5408 16.3368 26.5807 16.2625 26.6101C16.2122 26.6727 16.1527 26.7296 16.0845 26.7786C15.9521 26.8738 15.8189 26.967 15.6848 27.0581C15.6149 27.1057 15.5407 27.1421 15.4643 27.1677C15.4104 27.228 15.3476 27.2821 15.2763 27.3277C15.2076 27.3716 15.1387 27.415 15.0696 27.4578L14.6576 27.7129L14.2185 27.509C14.1431 27.474 14.0663 27.4374 13.9883 27.3992C13.9081 27.36 13.8362 27.3104 13.7734 27.2528C13.6906 27.2359 13.6087 27.2068 13.5302 27.165C13.3851 27.0877 13.2363 27.0056 13.084 26.9186C13.0079 26.8751 12.9404 26.8221 12.8822 26.7619C12.8018 26.7404 12.723 26.7071 12.6481 26.6617C12.5081 26.5768 12.3656 26.488 12.2209 26.3954C12.1476 26.3485 12.0834 26.2928 12.0285 26.2305C11.9499 26.2052 11.8734 26.1686 11.8013 26.1202C11.6653 26.0288 11.5276 25.9343 11.3884 25.8365C11.3175 25.7866 11.2558 25.7283 11.2037 25.6639C11.1264 25.6355 11.0516 25.5958 10.9817 25.5445C10.8492 25.4474 10.7154 25.3474 10.5807 25.2445C10.5117 25.1918 10.4523 25.1311 10.4027 25.0646C10.3264 25.0332 10.2531 24.9906 10.1851 24.9366C10.0566 24.8346 9.92731 24.7301 9.79738 24.6231C9.73081 24.5682 9.67398 24.5058 9.62713 24.438C9.55257 24.4039 9.48138 24.3589 9.41581 24.3029C9.29065 24.1959 9.16502 24.0866 9.03905 23.975C8.97412 23.9175 8.91931 23.8527 8.87477 23.7828C8.80102 23.746 8.73105 23.6983 8.66715 23.6396C8.54615 23.5286 8.42494 23.4154 8.30362 23.3001C8.24105 23.2406 8.18874 23.1742 8.14676 23.1033C8.07473 23.0639 8.00683 23.014 7.94529 22.9534C7.82742 22.8374 7.70954 22.7194 7.59175 22.5994C7.5313 22.5378 7.48134 22.4697 7.44183 22.3973C7.37125 22.3555 7.30515 22.3033 7.24577 22.2407C7.13229 22.1209 7.01897 21.9993 6.9059 21.8759C6.84735 21.8119 6.79958 21.7418 6.76251 21.6677C6.69305 21.6234 6.62846 21.5686 6.57101 21.5037C6.46172 21.3801 6.35274 21.2547 6.24416 21.1275C6.18802 21.0617 6.1428 20.9902 6.10834 20.9152C6.0407 20.8685 5.97826 20.8117 5.92326 20.7449C5.81766 20.6168 5.71252 20.4869 5.60791 20.3554C5.55423 20.2878 5.51161 20.215 5.47981 20.139C5.41405 20.09 5.35382 20.0312 5.30132 19.9627C5.20036 19.8311 5.09997 19.6978 5.00022 19.5628C4.94874 19.4932 4.90859 19.4185 4.87943 19.3412C4.81514 19.2898 4.75676 19.2286 4.70652 19.158C4.61041 19.023 4.51498 18.8865 4.42029 18.7484C4.37112 18.6767 4.33353 18.6003 4.3071 18.5216C4.2444 18.4678 4.188 18.4043 4.14011 18.3317C4.04901 18.1936 3.95868 18.0539 3.86918 17.9127C3.82267 17.8394 3.78786 17.7618 3.76427 17.6823C3.70365 17.6263 3.64965 17.5609 3.60447 17.4867C3.51813 17.3448 3.43266 17.2015 3.34812 17.0568C3.30436 16.9819 3.27241 16.9032 3.25171 16.823C3.19327 16.7648 3.14177 16.6976 3.09938 16.6218C3.01804 16.4765 2.93765 16.3298 2.85827 16.1816C2.81734 16.1052 2.78831 16.0255 2.77055 15.9447C2.71439 15.8844 2.66548 15.8154 2.62595 15.7382C2.54984 15.5896 2.47475 15.4396 2.40075 15.2883C2.36272 15.2105 2.33668 15.1299 2.32191 15.0486C2.26811 14.9863 2.22186 14.9155 2.18527 14.837C2.11472 14.6856 2.04527 14.5329 1.97698 14.3789C1.94184 14.2996 1.9188 14.218 1.90708 14.1361C1.85559 14.0718 1.81198 13.9992 1.77832 13.9193C1.71353 13.7655 1.64989 13.6104 1.58747 13.454C1.55528 13.3733 1.53531 13.2908 1.52668 13.2084C1.47756 13.142 1.43664 13.0678 1.40597 12.9865C1.34705 12.8304 1.28933 12.6731 1.23288 12.5145C1.20372 12.4326 1.18687 12.3493 1.18136 12.2666C1.13472 12.1984 1.09658 12.1225 1.06897 12.0401C1.01601 11.8819 0.964298 11.7226 0.91389 11.5621C0.887825 11.479 0.874128 11.3951 0.871758 11.3122C0.827687 11.2421 0.79241 11.1648 0.767914 11.0814C0.720974 10.9214 0.67533 10.7602 0.631024 10.598C0.6081 10.514 0.597576 10.4296 0.598335 10.3466C0.556919 10.2749 0.524567 10.1963 0.503225 10.1119C0.462351 9.95033 0.422807 9.78762 0.38463 9.62381C0.364878 9.53906 0.357529 9.45428 0.361394 9.37143C0.322703 9.29825 0.293325 9.21849 0.27516 9.13338C0.2576 9.0511 0.240385 8.96855 0.223521 8.88573C0.205112 8.79533 0.187869 8.70584 0.171782 8.61726C0.155485 8.52753 0.15279 8.43845 0.16222 8.3522C0.126403 8.27297 0.101305 8.18719 0.0890208 8.09647C0.0638962 7.91091 0.0441588 7.72945 0.0297212 7.55203C0.0220142 7.45731 0.0289232 7.36479 0.0485462 7.27673C0.0198645 7.19074 0.00350165 7.09893 0.00161212 7.00341C-0.00214745 6.81335 0.000676873 6.62811 0.009999 6.44762C0.0150529 6.34978 0.0351961 6.25633 0.0680343 6.16947C0.0515859 6.07734 0.0490135 5.98106 0.0623077 5.88329C0.089055 5.68658 0.124347 5.49613 0.16805 5.31191C0.19187 5.21151 0.231284 5.11899 0.283078 5.03634C0.284795 4.93782 0.30247 4.83791 0.337735 4.74013C0.408073 4.5451 0.488923 4.35894 0.579798 4.18163C0.628724 4.08616 0.69202 4.00309 0.765637 3.93371C0.792873 3.83544 0.837023 3.74015 0.898811 3.65211C1.01965 3.47993 1.15061 3.31969 1.29039 3.17098C1.36383 3.09284 1.44772 3.0307 1.53776 2.98468C1.59087 2.89847 1.65924 2.81981 1.7424 2.75293C1.90154 2.62495 2.06743 2.50926 2.23839 2.40492C2.32671 2.35101 2.42053 2.31415 2.51608 2.29339C2.58656 2.22606 2.66905 2.16913 2.76224 2.12616C2.93888 2.04472 3.119 1.97327 3.30119 1.91081C3.3947 1.87876 3.4898 1.86303 3.58344 1.86212C3.6625 1.81261 3.75054 1.77466 3.84583 1.75115C4.02669 1.70653 4.20895 1.66942 4.39151 1.63901C4.48561 1.62334 4.57872 1.62293 4.66835 1.636C4.75129 1.60037 4.84096 1.57675 4.93544 1.56749C5.11602 1.54979 5.29653 1.53784 5.47603 1.53101C5.56914 1.52746 5.65949 1.53826 5.745 1.56143C5.82975 1.53649 5.91959 1.52375 6.01248 1.52521C6.19153 1.52801 6.36914 1.53539 6.54441 1.54677C6.63605 1.55272 6.72363 1.57225 6.80533 1.60329C6.89102 1.58706 6.9805 1.58317 7.07165 1.59333C7.24952 1.61314 7.4243 1.63672 7.595 1.66347C7.68572 1.67768 7.77118 1.70504 7.84978 1.74333C7.93669 1.73474 8.02631 1.73881 8.11637 1.75707C8.29513 1.79332 8.46823 1.83278 8.63437 1.87469C8.72391 1.89727 8.80696 1.9326 8.8821 1.97829C8.97031 1.97821 9.06002 1.99126 9.14875 2.01876C9.33557 2.07668 9.51166 2.13788 9.67397 2.20122C9.76916 2.23837 9.85457 2.28999 9.92868 2.35263C10.0294 2.36803 10.1291 2.40098 10.2238 2.45275C10.3317 2.51171 10.4412 2.57932 10.5421 2.65647C10.6214 2.71705 10.7016 2.78366 10.7816 2.85371C10.8558 2.91864 10.9169 2.99307 10.9648 3.07366C11.0456 3.11511 11.1216 3.16962 11.1896 3.23721C11.3088 3.35564 11.4329 3.48363 11.5603 3.61871C11.6225 3.68474 11.6731 3.75773 11.712 3.83505C11.7853 3.87952 11.8535 3.93532 11.9142 4.00233C12.0268 4.12683 12.1417 4.25588 12.2579 4.38824C12.3167 4.45524 12.364 4.52854 12.3999 4.60565C12.4708 4.65168 12.5365 4.70857 12.5945 4.77614C12.7044 4.90428 12.8151 5.03452 12.9257 5.16593C12.9828 5.23366 13.0283 5.30736 13.0626 5.38461C13.1322 5.43169 13.1964 5.4894 13.2529 5.55752C13.3616 5.6886 13.4698 5.82 13.5768 5.95083C13.6326 6.01918 13.677 6.09329 13.7101 6.17077C13.7789 6.21868 13.8422 6.27709 13.8977 6.34576C14.006 6.4798 14.1123 6.61231 14.2161 6.74226C14.2648 6.8032 14.3044 6.86852 14.3351 6.93659C14.3479 6.85332 14.3724 6.77044 14.4095 6.69023C14.4833 6.5305 14.5607 6.37059 14.6418 6.21085C14.6836 6.1284 14.7362 6.05511 14.7969 5.99183C14.8156 5.90575 14.8471 5.82097 14.892 5.74014C14.978 5.58573 15.0675 5.43174 15.1609 5.2785C15.2092 5.19918 15.2676 5.12993 15.3334 5.07141C15.3589 4.98665 15.3971 4.90424 15.4486 4.82691C15.547 4.67922 15.6492 4.53252 15.7551 4.3871C15.81 4.31178 15.8742 4.24744 15.9449 4.19449C15.9774 4.11188 16.0226 4.03273 16.0807 3.95983C16.1918 3.82044 16.3067 3.68255 16.4255 3.54644C16.487 3.47603 16.5568 3.41745 16.6321 3.3709C16.672 3.29128 16.7242 3.21627 16.7889 3.14872C16.9124 3.01954 17.0398 2.89234 17.1711 2.76738C17.2389 2.7028 17.314 2.65087 17.3936 2.61149C17.4408 2.53578 17.4999 2.46584 17.5707 2.40456C17.7061 2.28749 17.8451 2.17281 17.9881 2.06076C18.0618 2.00292 18.1417 1.95842 18.2248 1.92689C18.2791 1.856 18.3447 1.79204 18.4212 1.73787C18.5672 1.63451 18.7167 1.53388 18.87 1.4362C18.949 1.38587 19.0327 1.34941 19.1184 1.32618C19.1793 1.26099 19.2507 1.2038 19.332 1.1574C19.4869 1.06897 19.6453 0.983506 19.8072 0.901203C19.8905 0.858873 19.9772 0.830757 20.0645 0.815952C20.1312 0.757067 20.2075 0.707138 20.2927 0.66885C20.3742 0.63216 20.4566 0.596256 20.5398 0.561157C20.6251 0.525194 20.7097 0.49097 20.7936 0.458481C20.88 0.425023 20.9684 0.405841 21.0561 0.399787C21.1292 0.34926 21.2109 0.308795 21.2999 0.280938C21.4794 0.224771 21.656 0.176949 21.8298 0.137538C21.9252 0.115905 22.0204 0.110347 22.1127 0.119086C22.1974 0.0786933 22.2899 0.0510042 22.3879 0.0387229C22.5871 0.0137693 22.7826 0.000781761 22.9742 7.47457e-06C23.0796 -0.000418236 23.1808 0.0173521 23.275 0.0503914C23.3737 0.0298813 23.4776 0.0258284 23.5832 0.0408265C23.7948 0.0708779 23.9995 0.11744 24.197 0.18025C24.3027 0.213892 24.398 0.265327 24.4806 0.330256C24.5848 0.34357 24.6884 0.375551 24.7869 0.427655C24.9771 0.528325 25.1555 0.644764 25.3223 0.774894C25.4083 0.841989 25.4791 0.921637 25.534 1.00931C25.6246 1.05591 25.709 1.11887 25.7826 1.19803C25.92 1.34568 26.0463 1.50297 26.1625 1.66785C26.2213 1.75118 26.2642 1.84106 26.2919 1.93384C26.3618 1.99866 26.4227 2.07578 26.4712 2.16421C26.5616 2.32891 26.6444 2.49924 26.7202 2.67394C26.7586 2.76224 26.782 2.85333 26.7915 2.94434C26.8454 3.0171 26.8893 3.09926 26.9206 3.18953C26.9792 3.35865 27.0327 3.53139 27.0814 3.70697C27.1061 3.79617 27.1168 3.88599 27.1148 3.97404C27.1574 4.05039 27.1898 4.13428 27.2096 4.22425C27.247 4.39407 27.2807 4.56632 27.3107 4.74042C27.3261 4.82942 27.3282 4.91766 27.3183 5.00304C27.353 5.08129 27.3772 5.16582 27.3889 5.25509C27.4113 5.42468 27.4307 5.59583 27.4474 5.7681C27.4559 5.85663 27.4516 5.94343 27.436 6.02663C27.4646 6.10605 27.4827 6.19084 27.4885 6.27941C27.4995 6.44853 27.508 6.61853 27.5143 6.78901C27.5175 6.877 27.5083 6.96253 27.4882 7.04389C27.512 7.12409 27.5253 7.20897 27.5262 7.29689C27.528 7.46546 27.5278 7.63428 27.5256 7.80302C27.5244 7.89042 27.5111 7.97478 27.4874 8.05451C27.5072 8.13524 27.5164 8.22009 27.5133 8.30737C27.5122 8.33823 27.5111 8.36909 27.5098 8.39993C27.6306 8.3878 27.7507 8.38008 27.8698 8.37637C27.9694 8.37326 28.0649 8.39109 28.152 8.42592C28.2402 8.39478 28.3359 8.38085 28.435 8.38785C28.6245 8.40125 28.8103 8.4238 28.9913 8.45389C29.088 8.46996 29.1768 8.50511 29.2547 8.55488C29.3457 8.54106 29.4409 8.54503 29.5357 8.56957C29.7196 8.61719 29.8971 8.6719 30.0668 8.7319C30.1591 8.76455 30.2405 8.81457 30.3086 8.87705C30.4009 8.87931 30.4943 8.89994 30.5837 8.94088C30.6708 8.98078 30.7551 9.02196 30.8364 9.06414L30.8578 9.0752L30.8783 9.0877C30.9725 9.14498 31.0655 9.21175 31.1567 9.28645C31.2411 9.35561 31.3057 9.44035 31.3495 9.53323C31.4394 9.57437 31.5221 9.63522 31.591 9.71531C31.7076 9.85085 31.8236 10.0029 31.9374 10.1715C31.9919 10.2525 32.0278 10.3407 32.046 10.431C32.117 10.4877 32.1783 10.5592 32.225 10.644C32.3083 10.7953 32.3897 10.957 32.4684 11.1293C32.5076 11.215 32.5286 11.3045 32.5329 11.3933C32.5927 11.4581 32.6416 11.5353 32.6751 11.6231C32.736 11.7823 32.7947 11.9491 32.8506 12.1237C32.8788 12.2117 32.8891 12.3013 32.8836 12.3884C32.935 12.4584 32.9745 12.5391 32.9983 12.6282C33.0418 12.7913 33.0829 12.9602 33.1214 13.1351C33.141 13.2243 33.1431 13.3133 33.1301 13.3985C33.1746 13.4719 33.2066 13.5547 33.2226 13.6445C33.2521 13.8102 33.2793 13.9808 33.304 14.1563C33.3165 14.2456 33.3121 14.3335 33.2933 14.4164C33.3317 14.4921 33.3573 14.5761 33.3668 14.6657C33.3845 14.8318 33.4 15.0019 33.4131 15.1761C33.4199 15.2657 33.41 15.3527 33.386 15.434C33.4196 15.5117 33.44 15.5968 33.4442 15.6865C33.4519 15.8529 33.4576 16.0228 33.461 16.1963C33.4628 16.2857 33.4482 16.3716 33.42 16.4511C33.4493 16.5301 33.4651 16.6157 33.4646 16.705C33.4643 16.7728 33.4636 16.8412 33.4626 16.91C33.5157 16.8573 33.5696 16.8046 33.6241 16.752C33.6889 16.6895 33.7623 16.6418 33.8403 16.609C33.8787 16.5329 33.9313 16.4625 33.998 16.4021C34.1237 16.2881 34.2525 16.1749 34.3841 16.0631C34.4531 16.0046 34.5298 15.9616 34.6102 15.9338C34.6537 15.8599 34.7112 15.7928 34.7822 15.7367C34.9168 15.6303 35.054 15.5257 35.1935 15.4237C35.2671 15.3699 35.3476 15.3325 35.4306 15.3107C35.4799 15.2398 35.543 15.1768 35.619 15.126C35.7638 15.0292 35.9109 14.9354 36.06 14.8455C36.1392 14.7977 36.2239 14.7674 36.3097 14.7534C36.3662 14.6864 36.4361 14.6289 36.5178 14.5853C36.6744 14.5017 36.8332 14.4228 36.9938 14.3492C37.0796 14.3098 37.1691 14.2892 37.2579 14.2856C37.3234 14.2246 37.4016 14.1751 37.4903 14.1417C37.6607 14.0775 37.8331 14.0198 38.0071 13.9698C38.1005 13.9429 38.1949 13.9363 38.2857 13.9474C38.3623 13.8961 38.4502 13.8592 38.5463 13.8411C38.7308 13.8062 38.9171 13.7807 39.1046 13.7659C39.2049 13.758 39.302 13.7716 39.3913 13.8028C39.4799 13.768 39.577 13.7508 39.6781 13.7552C39.8709 13.7635 40.0639 13.7844 40.2566 13.8189C40.3581 13.8372 40.4506 13.8763 40.5306 13.9313C40.627 13.9209 40.7271 13.9304 40.8251 13.9628C41.0088 14.0233 41.1903 14.0974 41.369 14.1857C41.4608 14.2311 41.5386 14.2938 41.6002 14.3681C41.6944 14.3844 41.7869 14.4204 41.8716 14.4773C41.9512 14.5306 42.0298 14.587 42.1076 14.6465C42.1797 14.7016 42.2497 14.7581 42.3177 14.8159C42.3894 14.8768 42.4461 14.9491 42.4873 15.0279C42.5681 15.0647 42.6434 15.1175 42.7083 15.1862C42.8345 15.3198 42.9511 15.4587 43.0583 15.6024C43.1156 15.6792 43.1552 15.7639 43.1778 15.8515C43.249 15.9066 43.3109 15.9765 43.3586 16.0597C43.4502 16.2191 43.5314 16.3828 43.6025 16.5499C43.6399 16.6379 43.6585 16.7293 43.66 16.8195C43.7159 16.8896 43.7596 16.9716 43.7866 17.0632C43.8378 17.2362 43.8793 17.4116 43.9115 17.5889C43.9283 17.6812 43.9268 17.7725 43.9094 17.8592C43.9483 17.9381 43.9732 18.0255 43.9808 18.1187C43.9951 18.2935 44.0012 18.4696 43.9998 18.6463C43.999 18.7378 43.9812 18.8252 43.9495 18.9054C43.9731 18.9881 43.9822 19.0766 43.9741 19.1674C43.9588 19.3379 43.937 19.5087 43.9091 19.6794C43.8946 19.7679 43.8646 19.8499 43.8223 19.923C43.8334 20.0067 43.8299 20.0938 43.8097 20.1808C43.7716 20.3444 43.7283 20.5078 43.6799 20.6707C43.6548 20.7552 43.6156 20.8316 43.5656 20.898C43.5665 20.9812 43.5529 21.0659 43.5232 21.1487C43.4673 21.3048 43.407 21.4603 43.3425 21.6149C43.3089 21.6954 43.2624 21.7664 43.2065 21.8265C43.199 21.9085 43.1772 21.9906 43.1398 22.0692C43.0693 22.2177 42.995 22.3653 42.9172 22.5117C42.8766 22.5881 42.8242 22.654 42.7635 22.7083C42.7487 22.7888 42.7198 22.868 42.676 22.9425C42.593 23.0835 42.5068 23.2232 42.4175 23.3615C42.3708 23.4338 42.3134 23.4948 42.2486 23.5436C42.2273 23.6222 42.1922 23.6985 42.1426 23.7688C42.0486 23.9022 41.9517 24.0341 41.8521 24.1641C41.7999 24.2322 41.7379 24.2882 41.6697 24.3317C41.6423 24.4082 41.6013 24.4813 41.5465 24.5473C41.4422 24.6729 41.3355 24.7965 41.2263 24.9179C41.169 24.9817 41.1028 25.0326 41.0314 25.0705C40.9981 25.1446 40.9515 25.2143 40.8917 25.2757C40.7776 25.393 40.6612 25.5078 40.5427 25.6201C40.4804 25.6792 40.4102 25.7247 40.3358 25.7567C40.2965 25.8281 40.2443 25.8939 40.1795 25.9504C40.0556 26.0584 39.9298 26.1635 39.802 26.2655C39.7346 26.3194 39.6604 26.3589 39.5832 26.3844C39.5378 26.4525 39.4799 26.5137 39.41 26.5645C39.2763 26.6618 39.1407 26.7557 39.0035 26.8459C38.9309 26.8936 38.8529 26.9262 38.7731 26.9443C38.721 27.0082 38.6571 27.064 38.5821 27.1081C38.4382 27.1926 38.2926 27.273 38.1456 27.349C38.0677 27.3892 37.9859 27.4135 37.9038 27.423C37.8446 27.4815 37.7742 27.5305 37.694 27.5662C37.6175 27.6003 37.5406 27.6331 37.4633 27.6647C37.3903 27.6946 37.317 27.7246 37.2435 27.7548C37.1661 27.7865 37.0864 27.8034 37.0075 27.8068C36.9487 27.86 36.8799 27.904 36.8026 27.9358C36.6565 27.996 36.5097 28.0565 36.3623 28.1175C36.285 28.1494 36.2055 28.1665 36.1266 28.1702C36.0679 28.2235 35.9993 28.2677 35.9221 28.2997C35.7757 28.3604 35.6289 28.4214 35.482 28.4825C35.4048 28.5146 35.3252 28.532 35.2463 28.5358C35.1877 28.5893 35.1192 28.6337 35.042 28.6659C34.8953 28.7271 34.7486 28.7884 34.6022 28.8497C34.525 28.882 34.4454 28.8995 34.3665 28.9035C34.308 28.9571 34.2396 29.0016 34.1624 29.034C34.0154 29.0957 33.8688 29.1573 33.7229 29.2187C33.6458 29.2511 33.5663 29.2687 33.4875 29.2729C33.4291 29.3266 33.3607 29.3712 33.2837 29.4037C33.1363 29.4659 32.9897 29.5277 32.8443 29.5892C32.7672 29.6218 32.6876 29.6396 32.6087 29.6438C32.5503 29.6977 32.482 29.7425 32.4049 29.7751C32.2572 29.8377 32.1109 29.8998 31.9662 29.9612C31.8892 29.9939 31.8096 30.0118 31.7308 30.0162C31.6725 30.0701 31.6043 30.115 31.5273 30.1477C31.3788 30.2109 31.2323 30.2733 31.0881 30.3347C31.0114 30.3675 30.9321 30.3855 30.8533 30.3901C30.7952 30.4439 30.7272 30.4887 30.6504 30.5215C30.5008 30.5855 30.3542 30.6481 30.2109 30.7095C30.1342 30.7423 30.0549 30.7605 29.9762 30.7651C29.9182 30.819 29.8502 30.864 29.7735 30.8969C29.6225 30.9617 29.476 31.0246 29.3346 31.0854C29.2577 31.1185 29.1782 31.1367 29.0993 31.1415C29.0412 31.1957 28.9732 31.2409 28.8963 31.2741C28.8187 31.3075 28.7431 31.3401 28.6696 31.3718C28.5972 31.4031 28.5268 31.4335 28.4585 31.463C28.3818 31.4961 28.3025 31.5146 28.2238 31.5195C28.1659 31.5737 28.0981 31.619 28.0215 31.6522C27.9785 31.6708 27.9368 31.6889 27.8965 31.7064C27.865 31.7201 27.8344 31.7334 27.8045 31.7464L27.2212 32L26.9085 31.4421C26.8704 31.3741 26.8317 31.3043 26.7925 31.2327C26.7516 31.1581 26.7253 31.0792 26.7127 30.9996C26.6536 30.9455 26.6027 30.8804 26.5631 30.8051C26.4905 30.6671 26.4165 30.5238 26.3414 30.3755C26.3032 30.3003 26.2796 30.2214 26.2694 30.1421C26.2124 30.0866 26.1638 30.0205 26.1267 29.9447C26.0578 29.8042 25.9881 29.6598 25.9179 29.5119C25.8818 29.4359 25.8602 29.3567 25.8521 29.2774C25.7966 29.2206 25.7498 29.1534 25.7146 29.077C25.6489 28.9343 25.5829 28.7887 25.5167 28.6405C25.4825 28.5638 25.4628 28.4843 25.4564 28.405C25.4024 28.347 25.3572 28.2789 25.3239 28.2019C25.2612 28.0572 25.1984 27.9102 25.1358 27.761C25.1033 27.6835 25.0853 27.6035 25.0807 27.5241C25.0279 27.4649 24.9842 27.3957 24.9525 27.3179C24.8928 27.1711 24.8332 27.0226 24.7739 26.8723C24.743 26.794 24.7268 26.7135 24.724 26.6338C24.6725 26.5734 24.6302 26.5031 24.6002 26.4245C24.5435 26.2759 24.4872 26.1258 24.4313 25.9744C24.4022 25.8956 24.3878 25.8149 24.3867 25.7354C24.3368 25.6739 24.2962 25.6028 24.268 25.5237C24.2147 25.3738 24.1619 25.2226 24.1097 25.0704C24.0824 24.9907 24.0699 24.9095 24.0707 24.8297C24.022 24.7669 23.9829 24.6947 23.9566 24.6147C23.9066 24.4629 23.8573 24.3102 23.8089 24.1566C23.7835 24.0762 23.7729 23.9946 23.7757 23.9148C23.7285 23.8507 23.6913 23.7775 23.6669 23.6967C23.6207 23.5436 23.5753 23.3896 23.5309 23.235C23.5076 23.1538 23.4992 23.0718 23.5041 22.992C23.4585 22.9266 23.4232 22.8523 23.401 22.7707C23.3588 22.6158 23.3176 22.4603 23.2774 22.3042C23.2564 22.2223 23.2503 22.14 23.2574 22.0602C23.2137 21.9934 23.1805 21.9179 23.1606 21.8356C23.1229 21.679 23.0863 21.522 23.0509 21.3647C23.0323 21.282 23.0288 21.1993 23.0385 21.1196C22.9968 21.0513 22.9659 20.9746 22.9486 20.8915C22.9158 20.7332 22.8843 20.5747 22.8542 20.416C22.8384 20.3325 22.8377 20.2496 22.8501 20.1702C22.8108 20.1002 22.7825 20.0223 22.7682 19.9385C22.7603 19.8921 22.7525 19.8457 22.7448 19.7993ZM22.9815 1.82555C23.0427 1.82531 23.1024 1.81893 23.1601 1.80701C23.2147 1.82609 23.2718 1.84015 23.3312 1.84857C23.4466 1.86496 23.5536 1.88967 23.6532 1.92136C23.7057 1.93807 23.7586 1.94969 23.8113 1.9565C23.8531 1.98925 23.8984 2.01874 23.9469 2.04441C24.0406 2.09405 24.1303 2.15231 24.2163 2.21936C24.2617 2.25478 24.3094 2.28516 24.3587 2.31059C24.3889 2.35869 24.424 2.40461 24.464 2.44765C24.5415 2.53091 24.6164 2.62358 24.6886 2.72603C24.7261 2.77914 24.7681 2.827 24.8138 2.86943C24.8321 2.93047 24.857 2.99049 24.8888 3.04853C24.9501 3.16019 25.0084 3.27963 25.0636 3.40674C25.0919 3.47199 25.1269 3.53222 25.1674 3.58697C25.1746 3.6556 25.1897 3.72448 25.2133 3.79244C25.2584 3.92243 25.3004 4.05799 25.3395 4.19882C25.3595 4.27102 25.3876 4.33875 25.4224 4.4013C25.4208 4.47349 25.4277 4.54702 25.444 4.62065C25.475 4.76141 25.5033 4.90599 25.5289 5.05407C25.542 5.13016 25.5641 5.20239 25.594 5.26985C25.5855 5.3435 25.5859 5.41938 25.596 5.49623C25.6154 5.64339 25.6324 5.7931 25.6471 5.94502C25.6547 6.02334 25.6718 6.09838 25.6973 6.16906C25.6834 6.24313 25.6785 6.32015 25.6836 6.39885C25.6934 6.54992 25.7011 6.70256 25.7067 6.85644C25.7096 6.936 25.7225 7.01281 25.7442 7.08567C25.726 7.15959 25.7167 7.23704 25.7175 7.31677C25.7192 7.47018 25.719 7.62436 25.7169 7.77897C25.7159 7.85912 25.7251 7.937 25.7434 8.01132C25.7215 8.08472 25.7085 8.16212 25.7057 8.2423C25.7002 8.39709 25.6931 8.55189 25.6843 8.70639C25.6798 8.78682 25.6857 8.86541 25.7009 8.94081C25.6988 8.9469 25.6968 8.95301 25.6948 8.95916C25.6817 8.96552 25.6688 8.97231 25.656 8.97955C25.4897 9.07346 25.3262 9.17947 25.1666 9.29838C25.0844 9.35956 25.0192 9.43526 24.9717 9.5194C24.8816 9.55148 24.7964 9.60263 24.7223 9.67302C24.587 9.80158 24.4559 9.94053 24.3295 10.0902C24.2649 10.1667 24.2191 10.2529 24.1915 10.3432C24.1125 10.393 24.042 10.4595 23.9855 10.5416C23.8824 10.6914 23.7834 10.8496 23.6887 11.0165C23.6409 11.1008 23.612 11.1909 23.6006 11.2817C23.5336 11.3428 23.4771 11.4179 23.436 11.5053C23.3606 11.6653 23.2888 11.8321 23.2206 12.0058C23.1859 12.0943 23.1699 12.1856 23.1707 12.2753C23.1134 12.3434 23.0679 12.4236 23.0385 12.5137C22.9845 12.6788 22.9335 12.8495 22.8856 13.0259C22.8611 13.116 22.8548 13.2069 22.8646 13.2944C22.8154 13.3668 22.7786 13.4497 22.7583 13.5407C22.7389 13.6268 22.7203 13.7142 22.7023 13.8029C22.6858 13.8847 22.6701 13.967 22.6552 14.0495C22.6397 14.1363 22.6403 14.2223 22.6551 14.3043C22.6159 14.3775 22.5889 14.4589 22.577 14.5462C22.5545 14.7109 22.5353 14.8768 22.5191 15.0436C22.5107 15.1306 22.5181 15.2155 22.539 15.2954C22.5059 15.3709 22.4854 15.4534 22.4801 15.5406C22.4701 15.7049 22.4629 15.8701 22.4584 16.0359C22.456 16.1226 22.469 16.2061 22.4949 16.2838C22.4672 16.3607 22.4523 16.4437 22.4526 16.5303C22.4531 16.6941 22.4561 16.8585 22.4614 17.0234C22.4615 17.0248 22.4615 17.0263 22.4616 17.0277C22.4447 17.0626 22.4301 17.0983 22.4179 17.1345C22.3622 17.1847 22.3117 17.2428 22.2682 17.3084C22.1847 17.4342 22.1 17.5605 22.0142 17.6873C21.9699 17.7526 21.9352 17.8216 21.9097 17.8927C21.8528 17.9419 21.801 17.9991 21.7561 18.0639C21.6699 18.1884 21.5825 18.3131 21.4941 18.438C21.4487 18.5022 21.4127 18.5702 21.3858 18.6406C21.3281 18.6884 21.2754 18.7443 21.2293 18.8079C21.1406 18.9304 21.0509 19.0529 20.9602 19.1753C20.9134 19.2386 20.8759 19.306 20.8475 19.3758C20.7887 19.4224 20.7347 19.4772 20.6871 19.5399C20.5958 19.6604 20.5035 19.7808 20.4102 19.9009C20.3621 19.9629 20.3232 20.0292 20.2933 20.0982C20.2336 20.1433 20.1785 20.1966 20.1297 20.258C20.0356 20.3763 19.9407 20.4943 19.8449 20.6118C19.7954 20.6726 19.7549 20.7379 19.7234 20.8061C19.6626 20.8497 19.6063 20.9016 19.556 20.9618C19.4592 21.0775 19.3615 21.1928 19.2631 21.3074C19.2122 21.3667 19.1701 21.4308 19.1369 21.4979C19.0752 21.5398 19.0177 21.5901 18.9659 21.6487C18.8662 21.7618 18.7657 21.8741 18.6644 21.9856C18.612 22.0433 18.5683 22.1061 18.5333 22.1721C18.4706 22.2121 18.4118 22.2606 18.3585 22.3175C18.2557 22.4275 18.1522 22.5365 18.048 22.6445C17.994 22.7004 17.9486 22.7616 17.9116 22.8264C17.8479 22.8643 17.7878 22.9108 17.7329 22.9659C17.6271 23.0722 17.5205 23.1773 17.4134 23.2813C17.3577 23.3353 17.3104 23.3948 17.2715 23.458C17.2067 23.4937 17.1452 23.5379 17.0886 23.5909C16.9794 23.6932 16.8695 23.7942 16.7591 23.8938C16.7018 23.9455 16.6525 24.0029 16.6114 24.0643C16.5457 24.0974 16.4829 24.139 16.4247 24.1895C16.3121 24.2871 16.199 24.3832 16.0853 24.4777C16.0262 24.5268 15.9748 24.5819 15.9314 24.6414C15.8646 24.6715 15.8003 24.7104 15.7402 24.7581C15.624 24.8504 15.5073 24.941 15.3901 25.0297C15.3293 25.0757 15.2759 25.128 15.2301 25.185C15.1624 25.2118 15.0969 25.2473 15.0351 25.2917C14.9153 25.3779 14.795 25.462 14.6744 25.544C14.6235 25.5786 14.5772 25.6175 14.5356 25.6599C14.4869 25.6186 14.4331 25.5818 14.3745 25.5506C14.2457 25.4819 14.1125 25.4084 13.9752 25.33C13.9063 25.2906 13.8346 25.2614 13.7615 25.2418C13.7086 25.1871 13.648 25.1383 13.58 25.0971C13.4525 25.0198 13.3222 24.9386 13.1894 24.8536C13.1222 24.8106 13.0515 24.7776 12.979 24.7543C12.9284 24.6969 12.8698 24.645 12.8034 24.6004C12.678 24.5162 12.5507 24.4288 12.4218 24.3382C12.3561 24.292 12.2864 24.2559 12.2146 24.2294C12.1662 24.1695 12.1095 24.115 12.0446 24.0674C11.9215 23.9772 11.7972 23.8842 11.6717 23.7885C11.6075 23.7394 11.5388 23.7003 11.4676 23.671C11.4214 23.6089 11.3665 23.5518 11.3031 23.5015C11.1832 23.4064 11.0626 23.3089 10.9412 23.2089C10.879 23.1577 10.8122 23.1162 10.7424 23.0842C10.6985 23.0208 10.6459 22.962 10.5846 22.9097C10.4676 22.8097 10.3501 22.7074 10.2323 22.603C10.1715 22.5492 10.1057 22.5051 10.0365 22.4706C9.99477 22.4051 9.94396 22.344 9.88417 22.2891C9.7709 22.1851 9.6574 22.0791 9.54377 21.9711C9.4852 21.9155 9.42121 21.8692 9.35364 21.8323C9.31424 21.7657 9.26573 21.7032 9.20812 21.6465C9.0977 21.5378 8.98726 21.4272 8.87689 21.3147C8.8203 21.2571 8.75796 21.2086 8.69173 21.1694C8.65465 21.1015 8.60833 21.0373 8.55273 20.9786C8.4464 20.8665 8.34023 20.7525 8.2343 20.6369C8.17947 20.577 8.11855 20.5262 8.05338 20.4846C8.01858 20.4151 7.97435 20.349 7.92056 20.2882C7.81818 20.1724 7.7161 20.0549 7.61441 19.9358C7.56186 19.8743 7.50295 19.8215 7.43951 19.7777C7.40718 19.7074 7.36537 19.64 7.3139 19.5776C7.21502 19.4576 7.11658 19.336 7.01866 19.2128C6.96845 19.1497 6.91163 19.0951 6.84999 19.0491C6.82016 18.9779 6.78082 18.9094 6.73172 18.8454C6.63724 18.7222 6.54332 18.5975 6.45001 18.4712C6.40189 18.4061 6.34682 18.3493 6.2866 18.3012C6.25927 18.2287 6.22228 18.1586 6.17532 18.0926C6.08545 17.9664 5.99623 17.8388 5.90773 17.7097C5.8618 17.6427 5.80858 17.5838 5.74989 17.5334C5.72515 17.4597 5.6906 17.3881 5.64589 17.3203C5.56076 17.1912 5.47638 17.0607 5.39279 16.9289C5.34938 16.8604 5.29843 16.7997 5.24174 16.7473C5.21966 16.6729 5.18776 16.6002 5.1456 16.531C5.06499 16.3986 4.98521 16.2648 4.90631 16.1297C4.86551 16.0599 4.81691 15.9975 4.7623 15.9431C4.74294 15.8682 4.71375 15.7945 4.67422 15.7239C4.59834 15.5883 4.52336 15.4514 4.44933 15.3133C4.41119 15.2421 4.36502 15.1781 4.31257 15.1217C4.29598 15.0463 4.26954 14.9717 4.23272 14.8998C4.16175 14.7613 4.09177 14.6215 4.0228 14.4805C3.98738 14.408 3.94371 14.3424 3.8935 14.2842C3.8797 14.2083 3.85608 14.133 3.82201 14.0599C3.75628 13.9189 3.69158 13.7766 3.62796 13.6332C3.59525 13.5594 3.55404 13.4921 3.50601 13.4321C3.49506 13.3557 3.47426 13.2795 3.44294 13.2051C3.3826 13.0618 3.32334 12.9174 3.26522 12.7718C3.23527 12.6968 3.19655 12.6279 3.15075 12.566C3.14269 12.4892 3.12477 12.4122 3.09623 12.3366C3.04137 12.1913 2.98764 12.0448 2.93509 11.8972C2.90796 11.821 2.87184 11.7507 2.82835 11.687C2.8232 11.6099 2.80819 11.5322 2.78251 11.4555C2.7332 11.3083 2.68507 11.1599 2.63814 11.0105C2.6139 10.9333 2.58042 10.8616 2.53933 10.7963C2.53711 10.719 2.52504 10.6407 2.50225 10.563C2.45855 10.4141 2.41606 10.2641 2.3748 10.113C2.35347 10.0349 2.32271 9.96192 2.28409 9.89507C2.28478 9.81769 2.27567 9.73895 2.25581 9.66043C2.21774 9.50993 2.18092 9.35839 2.14536 9.20582C2.12697 9.12692 2.09896 9.05285 2.06286 8.98456C2.06646 8.90724 2.06029 8.8282 2.04338 8.74896C2.02702 8.67231 2.01098 8.59539 1.99527 8.51822C1.97941 8.44033 1.96463 8.36364 1.95092 8.28813C1.93715 8.21233 1.91448 8.14044 1.88419 8.07338C1.89214 8.00042 1.89144 7.92531 1.88114 7.84929C1.86023 7.69482 1.8441 7.54598 1.83243 7.4026C1.82629 7.3271 1.81121 7.2545 1.78832 7.18578C1.80395 7.1155 1.81152 7.04221 1.81003 6.96697C1.8071 6.81879 1.80936 6.67745 1.81633 6.54266C1.82003 6.47097 1.81543 6.40079 1.80338 6.33305C1.82742 6.26935 1.84472 6.20191 1.85429 6.13149C1.87328 5.99186 1.8978 5.86053 1.92711 5.73701C1.94271 5.67123 1.95083 5.6054 1.95202 5.54044C1.98599 5.48614 2.01476 5.42736 2.03741 5.36455C2.08186 5.24132 2.13179 5.12685 2.18637 5.02037C2.2153 4.96392 2.23782 4.90584 2.25421 4.84696C2.29817 4.80544 2.33866 4.75884 2.37482 4.70731C2.44519 4.60705 2.52128 4.51395 2.60263 4.4274C2.64558 4.38171 2.68292 4.33271 2.71469 4.28127C2.76856 4.25366 2.82047 4.22017 2.86957 4.18068C2.96503 4.10392 3.0667 4.03277 3.17436 3.96706C3.23082 3.93261 3.2822 3.89291 3.32828 3.84897C3.39093 3.8353 3.4531 3.81466 3.51379 3.78668C3.63153 3.7324 3.75469 3.68334 3.88287 3.6394C3.94951 3.61656 4.01178 3.58665 4.06914 3.55077C4.13724 3.55006 4.20632 3.54153 4.27531 3.52451C4.40876 3.49158 4.54586 3.46356 4.68601 3.44021C4.75885 3.42808 4.82822 3.40748 4.89328 3.37957C4.96366 3.38979 5.03638 3.39175 5.11031 3.3845C5.25343 3.37047 5.3983 3.36083 5.54421 3.35527C5.62024 3.35238 5.69372 3.34009 5.7636 3.31956C5.83414 3.33865 5.90812 3.34936 5.98446 3.35055C6.13283 3.35287 6.28103 3.35901 6.4283 3.36857C6.5054 3.37358 6.58086 3.36868 6.65347 3.35496C6.72273 3.38124 6.79632 3.3993 6.87324 3.40787C7.02399 3.42466 7.17241 3.44469 7.31756 3.46743C7.3945 3.47948 7.47067 3.48136 7.54475 3.47407C7.61174 3.50668 7.68383 3.53141 7.76011 3.54687C7.91153 3.57758 8.05718 3.6108 8.19578 3.64576C8.26954 3.66437 8.34344 3.67326 8.41617 3.67322C8.47807 3.71082 8.54546 3.74148 8.61764 3.76385C8.7682 3.81053 8.90352 3.85783 9.02167 3.90394C9.08447 3.92845 9.14833 3.9454 9.21225 3.95524C9.25788 3.99374 9.30798 4.02823 9.36229 4.05793C9.41575 4.08716 9.44241 4.1059 9.44988 4.11161C9.49023 4.14246 9.53901 4.18248 9.5964 4.23273C9.65343 4.28266 9.71488 4.32411 9.77926 4.35718C9.81774 4.42184 9.86485 4.48271 9.92057 4.53808C10.0232 4.64008 10.1334 4.75364 10.2501 4.87735C10.3076 4.93828 10.3714 4.98944 10.4395 5.03078C10.4757 5.10266 10.522 5.17085 10.5784 5.23328C10.6843 5.35034 10.7932 5.47262 10.9042 5.59905C10.9605 5.66322 11.0238 5.71748 11.0919 5.7617C11.1264 5.83578 11.1715 5.90638 11.2272 5.9713C11.3332 6.09485 11.4402 6.22082 11.5476 6.34832C11.603 6.41412 11.6657 6.47001 11.7334 6.51583C11.7668 6.59099 11.8108 6.66282 11.8658 6.7291C11.9717 6.85683 12.0772 6.98506 12.1818 7.11292C12.2364 7.17974 12.2985 7.23671 12.3659 7.2836C12.3983 7.35944 12.4415 7.43207 12.4957 7.49925C12.6018 7.63051 12.706 7.76032 12.8077 7.88771C12.8616 7.95523 12.9231 8.01296 12.9899 8.06067C13.0215 8.13691 13.0639 8.21005 13.1174 8.27788C13.2243 8.4133 13.3271 8.54431 13.4248 8.6695C13.478 8.73768 13.5389 8.79615 13.6052 8.84463C13.6359 8.92124 13.6774 8.9949 13.7301 9.06338C13.7827 9.13161 13.8328 9.19698 13.8802 9.25915L14.9277 10.631L15.4569 8.98346C15.4806 8.90974 15.505 8.83571 15.5303 8.76143C15.5564 8.68474 15.5717 8.60697 15.5772 8.52975C15.622 8.46695 15.6596 8.39733 15.6882 8.32163C15.7428 8.17758 15.8004 8.03297 15.8611 7.88814C15.8923 7.81365 15.913 7.73734 15.9238 7.66088C15.9727 7.60158 16.015 7.53499 16.0488 7.46174C16.1134 7.32202 16.1809 7.18243 16.2516 7.04326C16.2879 6.97163 16.314 6.89741 16.3304 6.82233C16.3833 6.76711 16.4301 6.70421 16.4691 6.63408C16.5436 6.50015 16.6212 6.3669 16.7018 6.23459C16.7433 6.16631 16.775 6.09467 16.797 6.0214C16.8539 5.9708 16.9053 5.91209 16.9496 5.84564C17.0341 5.71874 17.1217 5.59299 17.2123 5.46864C17.2591 5.40442 17.2963 5.33608 17.3242 5.26534C17.3848 5.21997 17.4406 5.16617 17.4901 5.10412C17.5847 4.98548 17.6822 4.86839 17.7829 4.75305C17.8348 4.69355 17.8777 4.62914 17.9116 4.56154C17.9755 4.52198 18.0356 4.47369 18.0902 4.41669C18.1944 4.30766 18.3018 4.20049 18.4122 4.09538C18.4691 4.04119 18.5175 3.98132 18.5574 3.91746C18.6245 3.88422 18.6885 3.84198 18.7479 3.79061C18.8614 3.69239 18.978 3.59629 19.0977 3.50247C19.1593 3.45412 19.2131 3.39933 19.2588 3.33975C19.3286 3.31323 19.3963 3.27748 19.4602 3.23222C19.5823 3.14575 19.7074 3.06157 19.8357 2.97984C19.9017 2.93778 19.9604 2.88854 20.0116 2.83375C20.0836 2.81418 20.1545 2.78524 20.2224 2.74645C20.3522 2.67238 20.485 2.60072 20.6209 2.53164C20.6907 2.49613 20.7541 2.45272 20.8103 2.40303C20.8841 2.3905 20.9575 2.36846 21.029 2.33631C21.0976 2.30542 21.1671 2.27516 21.2373 2.24555C21.3066 2.21632 21.3746 2.1888 21.4414 2.16293C21.5091 2.13674 21.5718 2.10324 21.6291 2.06366C21.6978 2.05889 21.767 2.04608 21.8355 2.02462C21.9719 1.98194 22.1021 1.94686 22.2264 1.91868C22.2927 1.90364 22.3556 1.88161 22.4146 1.85352C22.4786 1.85953 22.5443 1.8587 22.6107 1.85039C22.7425 1.83387 22.8659 1.82602 22.9815 1.82555ZM27.4095 9.84702C27.4389 9.84656 27.4687 9.84425 27.4986 9.83998C27.6364 9.82033 27.7749 9.80871 27.9135 9.80439C27.9876 9.80207 28.0587 9.78835 28.1252 9.76492C28.191 9.79116 28.2618 9.8078 28.3361 9.81306C28.4795 9.8232 28.6215 9.84037 28.7612 9.86359C28.8361 9.87604 28.9101 9.87614 28.9813 9.86537C29.0423 9.90428 29.1102 9.93437 29.1839 9.95344C29.3275 9.99063 29.4662 10.0334 29.5987 10.0802C29.6703 10.1056 29.7433 10.1186 29.8152 10.1204C29.8684 10.1691 29.9298 10.2103 29.9986 10.2419C30.0564 10.2683 30.112 10.2953 30.1653 10.3224C30.1933 10.3406 30.2266 10.3646 30.2646 10.3957C30.3126 10.435 30.364 10.4669 30.4177 10.4916C30.4446 10.5483 30.4794 10.6023 30.5222 10.6521C30.6001 10.7427 30.6825 10.85 30.7672 10.9755C30.8086 11.0368 30.8577 11.0897 30.9125 11.1335C30.9266 11.2033 30.9514 11.2722 30.9875 11.3378C31.0532 11.4571 31.1187 11.5869 31.1831 11.7279C31.2155 11.7987 31.2578 11.8615 31.3077 11.9156C31.3114 11.9898 31.3266 12.0646 31.3546 12.1377C31.4058 12.2716 31.4556 12.4132 31.5036 12.563C31.5279 12.639 31.5637 12.708 31.6083 12.7688C31.6035 12.8445 31.6108 12.9223 31.6314 12.9996C31.6693 13.1418 31.7054 13.2901 31.7394 13.4447C31.7568 13.5238 31.7866 13.5969 31.8262 13.6624C31.8146 13.7383 31.8151 13.8175 31.8293 13.8974C31.8557 14.0455 31.8802 14.1987 31.9025 14.357C31.9138 14.4378 31.9382 14.5135 31.973 14.5823C31.9559 14.6577 31.9507 14.7373 31.9594 14.8185C31.9755 14.9696 31.9896 15.1249 32.0017 15.2844C32.0079 15.3667 32.0276 15.4446 32.0586 15.5162C32.0365 15.5911 32.0263 15.671 32.0302 15.7535C32.0373 15.907 32.0425 16.064 32.0457 16.2248C32.0473 16.3078 32.063 16.3872 32.0902 16.4608C32.064 16.5348 32.0495 16.6145 32.0491 16.6976C32.0483 16.8523 32.0457 17.0102 32.0411 17.1713C32.0387 17.2546 32.0506 17.335 32.0744 17.4101C32.0447 17.483 32.0265 17.5623 32.0223 17.6456C32.0145 17.8009 32.0049 17.9591 31.9934 18.1201C31.9875 18.2036 31.996 18.2847 32.0168 18.361C31.984 18.4329 31.9625 18.5116 31.955 18.5949C31.9478 18.6742 31.9402 18.7542 31.9321 18.8349L31.6853 21.2993L33.1945 19.346C33.2401 19.2868 33.2879 19.2263 33.3375 19.1645C33.3887 19.1008 33.4272 19.0309 33.4535 18.9579C33.5203 18.9192 33.582 18.8688 33.6355 18.8068C33.7343 18.6921 33.8384 18.575 33.9474 18.4563C34.0031 18.3956 34.0464 18.3278 34.0773 18.256C34.147 18.2214 34.2121 18.1747 34.2697 18.1157C34.3771 18.0055 34.4882 17.8948 34.6025 17.7845C34.6617 17.7274 34.7089 17.6624 34.7441 17.5927C34.8156 17.5625 34.8833 17.5199 34.9442 17.4647C35.0588 17.3607 35.176 17.2577 35.2955 17.1563C35.3578 17.1034 35.4089 17.0419 35.4483 16.9749C35.5212 16.9497 35.5912 16.912 35.6553 16.8613C35.7764 16.7655 35.8994 16.6718 36.0238 16.5809C36.0891 16.5331 36.144 16.4762 36.1879 16.4131C36.2617 16.3937 36.3336 16.3619 36.4008 16.317C36.5283 16.2318 36.6568 16.1499 36.7862 16.0719C36.8543 16.0308 36.9131 15.98 36.9619 15.9222C37.0359 15.91 37.1093 15.8858 37.1792 15.8484C37.3124 15.7774 37.4458 15.7111 37.5791 15.65C37.6497 15.6177 37.7124 15.5751 37.7664 15.5248C37.8394 15.5219 37.9132 15.5073 37.9854 15.4801C38.1228 15.4283 38.2594 15.3828 38.395 15.3438C38.4667 15.3231 38.5327 15.2921 38.5917 15.2527C38.6615 15.2611 38.7337 15.2591 38.8065 15.2454C38.9445 15.2194 39.0808 15.2009 39.2151 15.1903C39.2858 15.1847 39.3533 15.1688 39.4162 15.1441C39.4795 15.1662 39.547 15.1795 39.6173 15.1826C39.7498 15.1883 39.8803 15.2025 40.0088 15.2256C40.076 15.2376 40.1428 15.2397 40.2075 15.2328C40.2612 15.2696 40.3208 15.2995 40.3856 15.3209C40.5068 15.3608 40.6272 15.4099 40.7467 15.4689C40.8086 15.4995 40.8728 15.5201 40.9375 15.5314C40.9799 15.5825 41.0303 15.6284 41.088 15.6671C41.143 15.704 41.1979 15.7433 41.2528 15.7853C41.3056 15.8257 41.3565 15.8668 41.4056 15.9085C41.4567 15.952 41.5122 15.9869 41.5703 16.0134C41.6 16.07 41.6378 16.1234 41.6837 16.172C41.7723 16.2658 41.8534 16.3625 41.9274 16.4616C41.9667 16.5144 42.0119 16.5601 42.0613 16.5985C42.0771 16.6593 42.1011 16.719 42.1339 16.7761C42.1967 16.8855 42.2526 16.9981 42.3018 17.1136C42.3278 17.1747 42.3612 17.2303 42.4006 17.2797C42.4017 17.3433 42.4113 17.4079 42.4302 17.4718C42.4663 17.5937 42.4959 17.7189 42.5193 17.8471C42.5315 17.9144 42.5527 17.9777 42.5814 18.036C42.5686 18.1002 42.5645 18.1673 42.57 18.2359C42.5807 18.3661 42.5854 18.499 42.5843 18.6344C42.5837 18.7051 42.5933 18.7734 42.6117 18.8381C42.5869 18.9008 42.5705 18.9683 42.5642 19.039C42.5522 19.1731 42.5349 19.3091 42.5124 19.4466C42.5007 19.5183 42.5 19.5892 42.509 19.6577C42.4745 19.7175 42.448 19.7835 42.4315 19.8545C42.4003 19.9889 42.3644 20.1244 42.3239 20.2605C42.3029 20.3315 42.2932 20.4031 42.294 20.4735C42.2517 20.5296 42.217 20.5931 42.192 20.6629C42.1446 20.7952 42.0932 20.9277 42.0379 21.0603C42.009 21.1295 41.9918 21.2006 41.9852 21.2716C41.9369 21.3236 41.8955 21.384 41.8633 21.4517C41.8022 21.5803 41.7377 21.7085 41.6698 21.8362C41.6344 21.9029 41.6105 21.9727 41.5975 22.0433C41.5442 22.0911 41.4972 22.1478 41.4589 22.213C41.3861 22.3367 41.3103 22.4595 41.2316 22.5814C41.1905 22.6451 41.1607 22.7129 41.1418 22.7826C41.0845 22.8258 41.0328 22.8787 40.9891 22.9407C40.906 23.0586 40.8202 23.1753 40.7321 23.2904C40.6859 23.3507 40.6508 23.4161 40.6264 23.4841C40.5658 23.5227 40.51 23.5713 40.4615 23.6297C40.3691 23.741 40.2745 23.8505 40.1779 23.958C40.1272 24.0144 40.0871 24.0768 40.0574 24.1426C39.994 24.1762 39.9347 24.2202 39.8818 24.2746C39.7809 24.3782 39.6782 24.4796 39.5738 24.5786C39.5189 24.6306 39.474 24.6894 39.4393 24.7524C39.3736 24.7807 39.3111 24.8195 39.2542 24.8692C39.1454 24.964 39.0351 25.0561 38.9235 25.1452C38.8648 25.1921 38.8154 25.2465 38.7757 25.306C38.7082 25.3283 38.643 25.3614 38.5823 25.4055C38.4662 25.49 38.3491 25.5711 38.231 25.6487C38.1688 25.6896 38.115 25.7387 38.0703 25.7936C38.0016 25.8093 37.9341 25.8356 37.8701 25.8732C37.7475 25.9452 37.6242 26.0133 37.5004 26.0773C37.4351 26.1111 37.3773 26.1536 37.3275 26.2028C37.2585 26.2108 37.1895 26.2293 37.1226 26.2591C37.059 26.2874 36.9954 26.3146 36.9318 26.3406C36.8584 26.3706 36.7847 26.4008 36.7108 26.431C36.6331 26.4629 36.564 26.5071 36.5049 26.5605C36.4257 26.5639 36.3457 26.581 36.268 26.6129C36.1213 26.6733 35.9739 26.7341 35.8259 26.7953C35.7484 26.8273 35.6795 26.8717 35.6206 26.9252C35.5415 26.9288 35.4616 26.9461 35.3841 26.9782C35.2371 27.0391 35.0898 27.1003 34.9424 27.1617C34.865 27.1939 34.7962 27.2384 34.7375 27.292C34.6583 27.2959 34.5785 27.3133 34.5011 27.3456C34.3539 27.407 34.2068 27.4685 34.0599 27.53C33.9826 27.5624 33.9139 27.607 33.8552 27.6607C33.7761 27.6647 33.6963 27.6823 33.619 27.7148C33.4715 27.7767 33.3246 27.8384 33.1782 27.9C33.101 27.9325 33.0325 27.9772 32.9739 28.031C32.8949 28.0351 32.8152 28.0529 32.7379 28.0854C32.5902 28.1478 32.4432 28.2098 32.2975 28.2714C32.2202 28.3041 32.1517 28.349 32.0932 28.4029C32.0141 28.4072 31.9343 28.4251 31.8571 28.4578C31.709 28.5205 31.5623 28.5827 31.4173 28.6443C31.3401 28.677 31.2717 28.722 31.2133 28.776C31.1343 28.7804 31.0546 28.7984 30.9774 28.8312C30.8286 28.8945 30.6818 28.957 30.5374 29.0186C30.4604 29.0514 30.3922 29.0964 30.334 29.1503C30.2551 29.1549 30.1756 29.173 30.0987 29.2058C29.9487 29.2699 29.8018 29.3327 29.6582 29.3942C29.5813 29.4271 29.5131 29.4721 29.455 29.5262C29.3761 29.5308 29.2967 29.549 29.2198 29.582C29.0684 29.647 28.9216 29.71 28.7798 29.771C28.7027 29.8041 28.6344 29.8495 28.5763 29.9038C28.4971 29.9086 28.4175 29.9269 28.3404 29.9601C28.186 30.0267 28.0394 30.09 27.9013 30.1496C27.8787 30.1594 27.8569 30.1702 27.8359 30.1819C27.8291 30.1663 27.8216 30.1508 27.8135 30.1354C27.7443 30.0039 27.6736 29.8669 27.6016 29.7248C27.565 29.6526 27.5179 29.5894 27.4632 29.5361C27.4534 29.4599 27.4311 29.384 27.3955 29.3113C27.3292 29.1761 27.2622 29.0371 27.1945 28.8946C27.1597 28.8213 27.1142 28.7568 27.0607 28.7019C27.0527 28.6254 27.0323 28.5488 26.9984 28.4751C26.935 28.3374 26.8713 28.1968 26.8073 28.0535C26.7743 27.9795 26.7302 27.9138 26.678 27.8578C26.6718 27.7811 26.6532 27.7041 26.6209 27.6296C26.5603 27.4897 26.4997 27.3476 26.4391 27.2034C26.4076 27.1284 26.365 27.0618 26.3139 27.0045C26.3094 26.9275 26.2925 26.85 26.2618 26.7748C26.204 26.6329 26.1464 26.4892 26.0891 26.344C26.0593 26.2682 26.018 26.2006 25.9682 26.1421C25.9654 26.065 25.9502 25.987 25.9211 25.911C25.8663 25.7674 25.8119 25.6224 25.758 25.4761C25.7299 25.4 25.6904 25.3316 25.6421 25.2721C25.641 25.1952 25.6275 25.1172 25.6003 25.0408C25.5488 24.8961 25.4978 24.7503 25.4475 24.6034C25.4212 24.5266 25.3832 24.4572 25.3362 24.3966C25.3369 24.3196 25.3253 24.2412 25.2999 24.1641C25.2517 24.0178 25.2043 23.8708 25.1576 23.7229C25.1332 23.6456 25.097 23.5753 25.0516 23.5136C25.0542 23.4368 25.0445 23.3583 25.0211 23.2806C24.9767 23.1334 24.9331 22.9855 24.8905 22.8371C24.8681 22.7593 24.8338 22.6882 24.7901 22.6254C24.7947 22.5487 24.7872 22.4701 24.7659 22.3919C24.7254 22.2435 24.686 22.0946 24.6476 21.9453C24.6275 21.867 24.5952 21.7952 24.5534 21.7312C24.5603 21.6549 24.555 21.5762 24.536 21.4976C24.5 21.3482 24.4651 21.1985 24.4314 21.0487C24.4137 20.97 24.3838 20.8973 24.3441 20.8322C24.3533 20.7563 24.3505 20.6776 24.3341 20.5986C24.3029 20.4483 24.2731 20.298 24.2446 20.1477C24.2296 20.0687 24.2023 19.9952 24.165 19.929C24.1768 19.8537 24.1768 19.7753 24.1632 19.6961C24.1375 19.5449 24.1132 19.3939 24.0905 19.2432C24.0785 19.1639 24.054 19.0896 24.0194 19.0221C24.0341 18.9476 24.0372 18.8695 24.0268 18.79C24.0072 18.6384 23.9892 18.4872 23.973 18.3366C23.9645 18.2573 23.9434 18.1824 23.9119 18.1138C23.9158 18.0979 23.9191 18.0817 23.9219 18.0654C23.9619 18.0239 23.9985 17.9781 24.0311 17.9279C24.1181 17.7939 24.2037 17.6606 24.2878 17.5281C24.3319 17.4588 24.3655 17.3857 24.389 17.3107C24.4461 17.2573 24.4973 17.1955 24.5407 17.1257C24.6252 16.9898 24.7081 16.855 24.7894 16.7212C24.832 16.6512 24.8642 16.5776 24.8862 16.5023C24.9422 16.4478 24.992 16.3851 25.034 16.3146C25.1159 16.1769 25.196 16.0406 25.2744 15.9058C25.3156 15.835 25.3462 15.7608 25.3668 15.6852C25.4216 15.6296 25.4702 15.5659 25.5106 15.4946C25.5902 15.3544 25.6677 15.2162 25.743 15.0802C25.7829 15.0082 25.8121 14.9331 25.8311 14.8567C25.885 14.7998 25.9324 14.7348 25.9715 14.6623C26.0488 14.5192 26.1234 14.3788 26.1954 14.2416C26.2337 14.1686 26.2612 14.0927 26.2784 14.0159C26.331 13.9576 26.3769 13.8913 26.4143 13.8178C26.4893 13.6703 26.5609 13.5269 26.629 13.388C26.6657 13.3131 26.6913 13.2356 26.7065 13.1573C26.7581 13.0967 26.8026 13.0283 26.8382 12.9526C26.8728 12.8789 26.9063 12.8067 26.9386 12.7362L26.9815 12.6426L27.0026 12.5416C27.0195 12.4611 27.036 12.3796 27.0523 12.297C27.0692 12.2114 27.0737 12.1262 27.0669 12.0433C27.103 11.9686 27.1295 11.8877 27.1446 11.8018C27.173 11.6394 27.2004 11.474 27.2264 11.3059C27.2397 11.22 27.2406 11.135 27.2306 11.0528C27.2635 10.9769 27.2867 10.8952 27.2983 10.8091C27.3204 10.6451 27.3413 10.479 27.3607 10.3112C27.3706 10.2249 27.3683 10.14 27.3552 10.0582C27.3811 9.99158 27.3996 9.92087 27.4095 9.84702ZM25.45 10.9667C25.4458 10.9856 25.4422 11.0048 25.4392 11.0242C25.4151 11.1802 25.3898 11.3335 25.3635 11.4837C25.3496 11.5629 25.3463 11.6415 25.3525 11.7181C25.3192 11.7871 25.294 11.8615 25.2784 11.9403C25.2703 11.9817 25.262 12.0228 25.2537 12.0636C25.2374 12.0987 25.2208 12.1343 25.2039 12.1704C25.1707 12.241 25.1472 12.3139 25.133 12.3873C25.0846 12.4441 25.0424 12.5079 25.0079 12.5781C24.9438 12.7089 24.8761 12.8445 24.805 12.9845C24.7695 13.0543 24.7437 13.1266 24.7273 13.1997C24.6772 13.2553 24.6332 13.318 24.5968 13.3875C24.5282 13.5183 24.4569 13.6523 24.383 13.7892C24.3456 13.8586 24.318 13.9307 24.2998 14.0038C24.2481 14.0584 24.2024 14.1205 24.1642 14.1894C24.1031 14.2998 24.0404 14.4117 23.9763 14.5251C23.9758 14.5221 23.9753 14.5191 23.9748 14.5162C24.0093 14.4515 24.0345 14.3804 24.0481 14.3042C24.0611 14.232 24.0748 14.1603 24.0892 14.089C24.1053 14.0099 24.1218 13.9322 24.1389 13.856C24.1569 13.7759 24.1607 13.6959 24.1522 13.6187C24.1956 13.5548 24.2293 13.4826 24.2508 13.4036C24.2925 13.2499 24.3366 13.1025 24.3827 12.9613C24.4077 12.8849 24.4192 12.8073 24.4186 12.731C24.4672 12.6731 24.5075 12.6063 24.5367 12.5318C24.5937 12.3866 24.6531 12.249 24.7144 12.1186C24.7476 12.0482 24.7684 11.975 24.7776 11.9016C24.8317 11.8522 24.8791 11.7935 24.9173 11.7262C24.9921 11.5943 25.0692 11.4713 25.148 11.3567C25.1908 11.2946 25.2224 11.2281 25.2433 11.1596C25.3032 11.1218 25.3585 11.0742 25.4067 11.0171C25.4211 11.0001 25.4355 10.9833 25.45 10.9667Z" fill="#886788"/>
</svg>
