<svg width="132" height="85" viewBox="0 0 132 85" fill="none" xmlns="http://www.w3.org/2000/svg">
<path fill-rule="evenodd" clip-rule="evenodd" d="M0 42.4318C0 41.1816 0.49665 39.9826 1.38069 39.0985C2.26474 38.2145 3.46376 37.7178 4.71398 37.7178L115.898 37.7178L86.2282 8.05743C85.343 7.17227 84.8458 5.97173 84.8458 4.71992C84.8458 3.46812 85.343 2.26759 86.2282 1.38242C87.1134 0.497269 88.3139 -7.62939e-06 89.5657 -7.62939e-06C90.8175 -7.62939e-06 92.0181 0.497269 92.9032 1.38242L130.615 39.0943C131.054 39.5322 131.402 40.0524 131.64 40.6251C131.878 41.1978 132 41.8118 132 42.4318C132 43.0519 131.878 43.6658 131.64 44.2385C131.402 44.8112 131.054 45.3314 130.615 45.7693L92.9032 83.4812C92.0181 84.3663 90.8175 84.8636 89.5657 84.8636C88.3139 84.8636 87.1134 84.3663 86.2282 83.4812C85.343 82.596 84.8458 81.3955 84.8458 80.1437C84.8458 78.8919 85.343 77.6913 86.2282 76.8062L115.898 47.1458L4.71398 47.1458C3.46376 47.1458 2.26474 46.6491 1.38069 45.7651C0.49665 44.881 0 43.682 0 42.4318Z" fill="#CFD1DF"/>
</svg>
